<?xml version="1.0" encoding="UTF-8" standalone="no"?>
<!DOCTYPE svg PUBLIC "-//W3C//DTD SVG 1.1//EN" "http://www.w3.org/Graphics/SVG/1.1/DTD/svg11.dtd">
<svg width="100%" height="100%" viewBox="0 0 311 311" version="1.1" xmlns="http://www.w3.org/2000/svg" xmlns:xlink="http://www.w3.org/1999/xlink" xml:space="preserve" xmlns:serif="http://www.serif.com/" style="fill-rule:evenodd;clip-rule:evenodd;stroke-linejoin:round;stroke-miterlimit:1.41421;">
    <g id="g3725" transform="matrix(1,0,0,1,-41.2696,0.365176)">
        <path id="path3739" d="M206.4,236.348C200.351,235.039 187.006,231.182 178.4,228.255C171.109,225.776 165.91,222.974 156.2,216.292C152.131,213.491 148.468,211.2 148.062,211.2C147.655,211.2 146.305,212.052 145.061,213.094C140.213,217.155 130.776,221.102 122.82,222.397C115.913,223.521 114.89,222.711 115.394,216.517C116.087,207.994 119.327,200.418 126.691,190.1C127.138,189.474 126.113,187.164 123.791,183.566C118.835,175.884 113.469,164.967 110.439,156.4C107.793,148.919 104.8,135.922 104.8,131.912C104.8,130.64 104.574,129.6 104.297,129.6C104.021,129.6 101.898,130.685 99.58,132.012C90.296,137.323 76.667,138.933 65.393,136.049C58.261,134.225 53.952,132.179 48.2,127.884C41.967,123.23 42.444,121.254 51.2,115.456C58.188,110.829 65.207,108.617 74.284,108.181C83.343,107.746 88.325,108.544 95.991,111.659C98.619,112.727 100.961,113.6 101.198,113.6C101.434,113.6 100.74,111.851 99.657,109.713C93.47,97.502 93.9,80.801 100.748,67.337C103.384,62.155 108.407,56 110,56C111.564,56 117.17,62.848 119.457,67.551C123.139,75.125 124.245,79.436 124.611,87.648C125.021,96.84 123.772,103.105 120.039,110.574L117.742,115.172L225.871,115.386C345.763,115.623 336.352,115.185 341.036,120.751C345.473,126.024 345.684,131.749 341.978,146.4C332.595,183.499 305.466,214.564 269.792,229.06C262.434,232.049 251.818,234.94 243.009,236.351C233.278,237.911 213.615,237.909 206.4,236.347L206.4,236.348Z" style="fill:rgb(208,235,244);fill-rule:nonzero;"/>
        <path id="path3737" d="M210.8,235.98C205.873,235.449 186.304,230.188 177.143,226.93C170.557,224.588 158.824,217.761 151.292,211.888C148.75,209.905 147.495,210.01 144.601,212.444C137.079,218.774 118.742,224.127 116.525,220.641C114.283,217.118 119.145,201.922 125.22,193.466C126.749,191.338 128,189.363 128,189.078C128,188.793 126.247,185.824 124.105,182.48C118.896,174.35 114.306,165.078 111.37,156.755C108.747,149.322 105.6,135.853 105.6,132.061C105.6,130.759 105.255,129.481 104.833,129.22C104.411,128.96 101.533,130.022 98.436,131.582C87.828,136.924 76.7,138.141 65.246,135.212C55.975,132.841 44.8,125.856 44.8,122.432C44.8,121.64 46.88,119.515 49.576,117.552C63.836,107.167 83.057,105.837 99.4,114.105C101.49,115.162 103.2,115.892 103.2,115.726C103.2,115.561 101.981,112.765 100.49,109.513C99,106.261 97.38,101.692 96.89,99.361C94.752,89.179 96.629,76.648 101.724,67.089C104.288,62.278 108.845,56.8 110.282,56.8C111.689,56.8 117.378,64.886 119.884,70.448C125.699,83.35 125.426,98.065 119.143,110.513C117.854,113.066 116.8,115.338 116.8,115.563C116.8,115.788 165.696,116.068 225.459,116.186L334.117,116.4L337.362,118.547C341.021,120.969 344,126.256 344,130.327C344,134.632 340.963,148.208 338.313,155.751C319.516,209.248 267.352,242.069 210.8,235.98Z" style="fill:rgb(163,216,235);fill-rule:nonzero;"/>
        <path id="path3735" d="M212.4,235.198C204.445,234.488 178.28,226.768 170.432,222.816C167.369,221.274 161.432,217.669 157.239,214.806C153.045,211.943 149.118,209.6 148.513,209.6C147.907,209.6 145.056,211.18 142.176,213.111C136.053,217.217 125.998,220.8 120.597,220.8C116.925,220.8 116.8,220.722 116.8,218.439C116.8,211.614 120.888,200.564 125.979,193.629C127.53,191.515 128.8,189.529 128.8,189.214C128.8,188.9 126.855,185.499 124.477,181.655C118.679,172.281 115.073,164.987 112.169,156.755C109.637,149.578 106.4,135.89 106.4,132.361C106.4,131.225 106.036,129.615 105.592,128.785C104.829,127.359 104.463,127.448 98.989,130.401C85.477,137.689 69.934,137.86 56.197,130.871C53.229,129.361 49.54,127.045 48,125.724C44.505,122.727 44.955,121.721 51.891,117.023C65.735,107.645 85.834,107.081 100.55,115.657C102.393,116.73 104.094,117.295 104.331,116.911C104.568,116.527 103.512,113.735 101.984,110.707C98.393,103.591 96.8,97.131 96.8,89.686C96.8,79.036 101.415,66.506 107.809,59.794L109.911,57.588L112.607,60.194C115.836,63.316 120.314,72.182 121.988,78.768C124.488,88.603 123.066,101.156 118.407,110.385C117.083,113.008 116,115.525 116,115.977C116,116.537 150.174,116.8 222.846,116.8C298.814,116.8 330.716,117.058 333.236,117.693C337.585,118.788 342.067,123.409 342.855,127.612C344.06,134.033 338.993,153.495 332.404,167.756C327.481,178.411 318.15,191.488 308.848,200.766C283.091,226.46 249.366,238.5 212.4,235.198Z" style="fill:rgb(80,200,242);fill-rule:nonzero;"/>
        <path id="path3733" d="M116.8,218.439C116.8,211.614 120.888,200.564 125.979,193.629C127.53,191.515 128.8,189.529 128.8,189.214C128.8,188.9 126.855,185.499 124.477,181.655C118.679,172.281 115.073,164.987 112.169,156.755C109.637,149.578 106.4,135.89 106.4,132.361C106.4,131.225 106.036,129.615 105.592,128.785C104.829,127.359 104.463,127.448 98.989,130.401C85.477,137.689 69.934,137.86 56.197,130.871C53.229,129.361 49.54,127.045 48,125.724C44.505,122.727 44.955,121.721 51.891,117.023C65.735,107.645 85.834,107.081 100.55,115.657C102.393,116.73 104.094,117.295 104.331,116.911C104.568,116.527 103.512,113.735 101.984,110.707C98.393,103.591 96.8,97.131 96.8,89.686C96.8,79.036 101.415,66.506 107.809,59.794L109.911,57.588L112.607,60.194C115.836,63.316 120.314,72.182 121.988,78.768C124.488,88.603 123.066,101.156 118.407,110.385C117.083,113.008 116,115.525 116,115.977C116,116.537 150.174,116.8 222.846,116.8C298.814,116.8 330.716,117.058 333.236,117.693C337.596,118.79 342.066,123.408 342.859,127.632C343.389,130.459 342.365,138.885 340.757,144.926L339.978,147.852L332.589,148.288C304.772,149.929 296.467,150.631 284.4,152.359C246.331,157.813 205.174,170.433 171.676,186.924L160.551,192.4L157.448,197.526C153.016,204.846 150.142,207.845 143.073,212.527C136.014,217.203 126.241,220.8 120.597,220.8C116.925,220.8 116.8,220.722 116.8,218.439Z" style="fill:rgb(86,180,212);fill-rule:nonzero;"/>
        <path id="path3731" d="M117.6,217.768C117.6,211.581 121.639,201.013 126.427,194.671C128.172,192.36 129.6,189.952 129.6,189.321C129.6,188.689 127.592,184.984 125.138,181.086C119.822,172.643 115.369,163.473 112.485,155.032C110.227,148.425 107.2,134.812 107.2,131.265C107.2,130.077 106.718,128.447 106.129,127.641C105.112,126.25 104.803,126.32 99.929,129.037C83.821,138.019 64.325,136.879 49.825,126.107C47.968,124.728 46.438,123.202 46.425,122.716C46.384,121.258 55.521,115.316 61.353,113.008C66.271,111.061 67.811,110.85 77.2,110.834C86.855,110.817 88.001,110.981 93.2,113.122C96.28,114.391 99.756,116.097 100.923,116.914C103.487,118.708 105.6,118.837 105.6,117.201C105.6,116.541 104.353,113.555 102.829,110.564C95.947,97.061 95.918,82.338 102.745,68.997C106.252,62.143 108.976,58.789 110.545,59.392C112.395,60.101 117.415,68.141 119.775,74.176C121.636,78.932 121.904,80.783 121.949,89.2C122.005,99.747 121.012,104.004 116.65,111.898C115.325,114.297 114.58,116.5 114.964,116.884C115.342,117.262 164.6,117.668 224.426,117.786C331.956,117.998 333.232,118.019 336,119.618C337.642,120.567 339.566,122.718 340.651,124.818C342.72,128.821 342.623,133.472 340.275,142.901L339.055,147.802L327.728,148.337C286.117,150.301 256.862,155.472 220,167.377C204.254,172.463 187.383,179.186 172.708,186.224C160.61,192.026 159.979,192.508 156.483,198.632C153.858,203.23 149.793,208 148.499,208C147.985,208 146.313,209.021 144.782,210.269C138.316,215.542 127.29,220 120.716,220C117.839,220 117.6,219.829 117.6,217.768Z" style="fill:rgb(51,166,206);fill-rule:nonzero;"/>
        <path id="path3729" d="M118.4,217.989C118.4,211.457 122.269,201.238 127.23,194.668C128.973,192.358 130.4,189.926 130.4,189.262C130.4,188.599 128.356,184.893 125.859,181.028C116.244,166.15 109.641,148.016 107.622,130.95C107.04,126.028 105.683,124.56 103.291,126.266C99.931,128.664 92.602,132.008 88.221,133.143C75.536,136.43 59.02,133.004 49.685,125.149C47.265,123.112 47.202,122.924 48.482,121.51C50.938,118.795 57.279,115.214 63.281,113.151C71.795,110.225 82.014,110.231 90.825,113.167C94.331,114.336 98.542,116.171 100.183,117.246C103.852,119.65 106.4,119.811 106.4,117.639C106.4,116.781 105.14,113.631 103.6,110.639C95.887,95.656 96.807,78.303 106.051,64.376C107.649,61.969 109.417,60 109.98,60C111.597,60 116.725,68.056 118.954,74.097C121.481,80.944 122.297,92.145 120.788,99.258C120.221,101.928 118.396,106.822 116.733,110.133C115.07,113.444 113.903,116.659 114.14,117.276C114.507,118.233 130.619,118.4 222.869,118.4C342.136,118.4 335.313,118.113 339.135,123.283C341.691,126.741 341.98,130.137 340.444,138.669L339.089,146.198L335.433,146.699C333.422,146.974 328.497,147.206 324.488,147.213C302.593,147.251 265.216,152.791 240.492,159.663C215.548,166.596 192.46,175.125 171.795,185.039C161.364,190.044 158.95,191.528 157.795,193.648C152.45,203.458 147.535,208.538 138.256,213.843C134.446,216.021 126.068,218.822 121.4,219.478C118.653,219.864 118.4,219.738 118.4,217.989L118.4,217.989Z" style="fill:rgb(37,156,197);fill-rule:nonzero;"/>
        <path id="path3727" d="M272.33,138.806C270.543,136.078 271.4,133.243 274.385,132.006C278.99,130.099 282.461,134.601 279.972,139.253C278.698,141.633 274.003,141.359 272.33,138.806Z" style="fill:rgb(70,85,90);fill-rule:nonzero;"/>
    </g>
</svg>
